<?xml version="1.0" standalone="no"?>
<!DOCTYPE svg PUBLIC "-//W3C//DTD SVG 20010904//EN"
 "http://www.w3.org/TR/2001/REC-SVG-20010904/DTD/svg10.dtd">
<svg version="1.0" xmlns="http://www.w3.org/2000/svg"
 width="1280.000000pt" height="823.000000pt" viewBox="0 0 1280.000000 823.000000"
 preserveAspectRatio="xMidYMid meet">
<metadata>
Created by potrace 1.15, written by Peter Selinger 2001-2017
</metadata>
<g transform="translate(0.000000,823.000000) scale(0.100000,-0.100000)"
fill="#000000" stroke="none">
<path d="M5480 7123 c-8 -2 -24 -8 -35 -13 -11 -5 -112 -19 -225 -31 -113 -12
-212 -27 -220 -34 -8 -6 -60 -17 -115 -24 -447 -55 -1214 -311 -1780 -593
-253 -127 -512 -276 -734 -424 -57 -38 -116 -76 -130 -86 -14 -9 -42 -30 -61
-48 -19 -17 -62 -49 -95 -70 -91 -58 -344 -281 -490 -431 -128 -131 -196 -213
-248 -295 -14 -23 -57 -80 -95 -128 -49 -61 -92 -133 -150 -249 -44 -89 -84
-175 -88 -192 -3 -16 -19 -56 -34 -87 -16 -32 -33 -90 -40 -130 -6 -40 -17
-84 -24 -98 -15 -32 -14 -376 1 -405 6 -11 21 -60 32 -110 24 -105 67 -198
147 -323 33 -50 142 -222 244 -383 102 -160 215 -330 251 -378 181 -237 464
-430 779 -530 74 -24 149 -50 165 -57 27 -12 118 -32 220 -49 22 -4 46 -11 53
-17 7 -6 30 -8 52 -5 28 3 43 1 52 -10 10 -13 27 -14 90 -9 65 5 79 4 84 -9 5
-13 46 -15 299 -15 258 0 294 2 299 16 5 13 18 15 90 9 69 -6 89 -4 107 9 13
9 42 16 64 16 46 0 81 6 342 54 234 44 376 80 592 151 91 30 195 61 231 69
l64 14 63 -58 c116 -108 389 -306 582 -420 138 -82 352 -186 461 -225 41 -14
77 -30 80 -35 8 -13 309 -117 480 -166 163 -47 423 -104 477 -104 17 0 38 -7
47 -15 8 -8 25 -15 38 -15 13 0 84 -9 158 -20 74 -11 159 -20 188 -20 28 0 52
-4 52 -10 0 -6 42 -10 105 -10 65 0 105 -4 105 -10 0 -13 654 -12 684 1 12 4
108 18 213 29 106 12 246 33 310 46 65 14 149 29 187 34 210 29 693 192 896
301 41 23 92 47 113 55 20 7 56 26 80 42 23 16 103 66 177 110 135 81 215 140
252 187 11 14 37 35 59 45 22 12 61 49 90 85 27 35 61 72 74 82 42 32 187 226
221 296 18 38 40 74 48 80 18 14 127 269 155 364 11 37 23 87 27 111 4 24 12
49 18 55 7 7 20 46 30 87 10 41 40 147 67 236 105 350 124 452 116 649 -11
305 -94 578 -232 764 -30 41 -55 83 -55 95 0 26 -35 85 -55 92 -8 3 -54 54
-103 112 -251 301 -587 555 -1017 770 -217 109 -569 253 -710 291 -33 9 -62
19 -65 22 -3 3 -18 9 -35 11 -16 3 -106 26 -199 52 -183 50 -361 88 -496 106
-47 6 -89 15 -95 19 -5 5 -44 11 -85 15 -41 3 -129 13 -195 21 -66 8 -155 15
-197 15 -46 0 -78 4 -78 10 0 7 -108 10 -322 8 -369 -2 -336 -9 -428 94 -136
152 -252 250 -371 312 -52 27 -98 55 -104 62 -12 15 -195 82 -335 122 -152 44
-287 70 -432 84 -71 6 -128 15 -128 20 0 5 -125 8 -282 7 -156 0 -290 1 -298
4 -8 3 -22 3 -30 0z m5 -1230 c13 -8 -10 -25 -112 -88 -70 -43 -164 -106 -208
-139 -109 -81 -327 -301 -408 -410 -178 -240 -292 -520 -323 -794 -15 -132
-15 -135 15 -410 17 -152 32 -315 34 -361 l2 -84 -32 -19 c-18 -11 -90 -34
-160 -53 -71 -18 -173 -47 -228 -64 -177 -55 -390 -95 -815 -153 -136 -18
-211 -22 -425 -22 -156 -1 -296 4 -350 12 -280 39 -565 121 -565 162 0 10 7
53 15 97 58 301 278 668 589 978 402 402 901 731 1484 982 463 198 854 309
1327 377 44 6 141 -1 160 -11z m2607 -664 c10 -5 52 -9 95 -7 172 4 491 -48
848 -139 451 -114 1016 -390 1322 -646 127 -105 324 -316 392 -418 105 -156
183 -332 211 -477 l12 -60 -137 -137 c-142 -142 -260 -229 -445 -328 -276
-149 -700 -286 -1110 -361 -327 -59 -889 -78 -1340 -44 -263 20 -400 38 -600
79 -328 68 -790 207 -813 246 -2 4 77 72 177 150 393 308 652 580 852 895 87
137 207 376 232 463 66 225 83 308 118 573 3 25 -2 77 -12 122 -23 109 -19
114 95 105 47 -4 94 -11 103 -16z m-1277 -116 c-215 -289 -551 -583 -1000
-874 -147 -96 -201 -127 -415 -243 -206 -111 -211 -112 -244 -61 -22 33 -11
74 53 205 136 279 402 521 793 725 252 130 677 280 807 284 l33 1 -27 -37z"/>
</g>
</svg>
